<?xml version="1.0" encoding="UTF-8" standalone="no" ?>
<!DOCTYPE svg PUBLIC "-//W3C//DTD SVG 1.1//EN" "http://www.w3.org/Graphics/SVG/1.1/DTD/svg11.dtd">
<svg xmlns="http://www.w3.org/2000/svg" xmlns:xlink="http://www.w3.org/1999/xlink" version="1.1" viewBox="0 0 600 480" xml:space="preserve">

<defs>
</defs>
<g transform="matrix(1 0 0 1 343 225.93)" style=""  >
		<text xml:space="preserve" font-family="WenCang-Regular" font-size="45" font-style="normal" font-weight="normal" style="stroke: none; stroke-width: 1; stroke-dasharray: none; stroke-linecap: butt; stroke-dashoffset: 0; stroke-linejoin: miter; stroke-miterlimit: 4; fill: rgb(50,50,50); fill-rule: nonzero; opacity: 1; white-space: pre;" ><tspan x="-76.5" y="14.14" >小象商场</tspan></text>
</g>
<g transform="matrix(1 0 0 1 397.2 262.41)" style=""  >
		<text xml:space="preserve" font-family="WenCang-Regular" font-size="14" font-style="normal" font-weight="normal" style="stroke: none; stroke-width: 1; stroke-dasharray: none; stroke-linecap: butt; stroke-dashoffset: 0; stroke-linejoin: miter; stroke-miterlimit: 4; fill: rgb(50,50,50); fill-rule: nonzero; opacity: 1; white-space: pre;" ><tspan x="-125.7" y="4.4" >X</tspan><tspan x="-113.09" y="4.4" >I</tspan><tspan x="-106.55" y="4.4" >A</tspan><tspan x="-92.9" y="4.4" >O</tspan><tspan x="-80.27" y="4.4" style="white-space: pre; "> </tspan><tspan x="-73.97" y="4.4" >X</tspan><tspan x="-61.36" y="4.4" >I</tspan><tspan x="-54.82" y="4.4" >A</tspan><tspan x="-41.17" y="4.4" >N</tspan><tspan x="-26.66" y="4.4" >G</tspan><tspan x="-14.34" y="4.4" style="white-space: pre; "> </tspan><tspan x="-8.04" y="4.4" >S</tspan><tspan x="3.86" y="4.4" >H</tspan><tspan x="16.62" y="4.4" >A</tspan><tspan x="30.27" y="4.4" >N</tspan><tspan x="44.78" y="4.4" >G</tspan><tspan x="57.1" y="4.4" style="white-space: pre; "> </tspan><tspan x="63.4" y="4.4" >C</tspan><tspan x="75.26" y="4.4" >H</tspan><tspan x="88.03" y="4.4" >A</tspan><tspan x="101.68" y="4.4" >N</tspan><tspan x="116.18" y="4.4" >G</tspan></text>
</g>
<g transform="matrix(0.25 0 0 0.25 199.19 240.31)" id="图层_1-2"  >
<path style="stroke: none; stroke-width: 1; stroke-dasharray: none; stroke-linecap: butt; stroke-dashoffset: 0; stroke-linejoin: miter; stroke-miterlimit: 4; fill: rgb(0,113,188); fill-rule: nonzero; opacity: 1;"  transform=" translate(-212.76, -183.21)" d="M 398.81 366.25 C 397.7635144444087 366.3690492200862 396.7209398730412 365.99638964497154 395.9870317802024 365.24095358140954 C 395.2531236873637 364.48551751784754 394.91075364078984 363.4326074328945 395.06 362.39 C 395.22 348.02 394.89 336.09 394.06 324.82 C 392.27 285.82 372.81 203.45999999999998 325.06 222.44 C 287.57 246.98 281.55 309.89 274.91 352.74 C 273.62 367.98 275.5 366.36 259.96000000000004 366.23 C 259.0262859629332 366.34166411156707 258.09056608970263 366.0382861839181 257.40000000000003 365.40000000000003 C 259.00000000000006 331.46000000000004 258.32000000000005 293.16 241.94000000000003 262.89000000000004 C 231.43000000000004 242.34000000000003 215.99000000000004 227.29000000000005 196.04000000000002 218.16000000000005 C 117.36 186.24 23.7 231 38 324.86 C 41.76 368.77 59.64 366.76 24.64 366.24 C 22.91313751038692 366.3970207739853 21.34477315813131 365.2293648963444 21 363.53 C 13.703993652697168 340.39455028588367 8.168206019273088 316.74042390055166 4.440000000000111 292.76999999999987 C -16.56 176.88 37.71 80.46999999999997 156.60999999999999 60.089999999999975 C 158.01 59.839999999999975 158.04 59.839999999999975 157.98999999999998 58.46999999999998 C 156.89 30.67999999999998 177.64999999999998 5.369999999999976 205.23999999999998 0.829999999999977 C 243.67 -5.77 275.18 27.9 284.85 65 C 388 98.43 425.8 205 425.48 306.85 C 425.64539852121015 325.1299288089566 424.70702480154387 343.4031707805342 422.66999999999996 361.56999999999994 C 422.22 365.57000000000005 421.53000000000003 366.20000000000005 417.44 366.20000000000005 C 411.27 366.15 405 366.18 398.81 366.25 Z M 398.31 363.01 C 405.16 362.93 412.44 363.01 419.23 362.94 C 432.83000000000004 251.51999999999998 406.06 106.32999999999998 285.23 69.38 C 279.85 67 280.6 59 278 54.61 C 266 22.86 238.32 -1.24 205.77 4 C 179.77 8.27 160.17000000000002 32.14 161.20000000000002 58.33 C 161.35000000000002 62 159.35000000000002 62.86 157.20000000000002 63.25 C 0.93 92.16 -20.19 229.83 24.27 363 C 30.21 363 36.37 362.9 42.599999999999994 363 C 12.32 269.76 60.23 197.18 161.41 205.78 C 240.14 211.35 269.40999999999997 293.71000000000004 259.98 363.02 C 263.3 362.93 266.83000000000004 362.93 270.74 363.02 C 276.34000000000003 317.46999999999997 283.21000000000004 245.26999999999998 323.56 219.6 C 336.89 212.6 349.2 215.79999999999998 360.39 225.12 C 395.53 257.36 397.9 313.31 398.31 363 Z M 191.05 168.73 C 131.05 171.31 115.50000000000001 90.64999999999999 175.83 77.93999999999998 C 149.18 14.609999999999985 238.10000000000002 -18.060000000000016 267.57 54.149999999999984 C 277.12 75.43999999999998 280.76 103.62999999999998 281.36 129.74999999999997 C 281.51669205035927 131.23009105610907 280.8386474789555 132.6747882963159 279.6 133.49999999999997 C 250.54 153.12 223.42 168 191.05 168.73 Z M 214.65 15.9 C 182.65 15.33 162.26 53.699999999999996 180.89000000000001 80.52000000000001 C 99.16 92.65 146 228.76 278.15 129.85 C 276.91 84.89 267.29 20.13 214.65 15.9 Z M 316 148.37 C 303.32 148.55 303.24 128.58 315.91 128.62 C 328.74 128.38 328.85 148.52 316 148.37 Z M 309.4 138.51 C 309.28 147.10999999999999 322.67999999999995 147.10999999999999 322.60999999999996 138.56 C 322.85 129.92 309.25 129.76 309.43 138.51 Z" stroke-linecap="round" />
</g>
<g transform="matrix(0.25 0 0 0.25 182.83 267.48)" id="图层_1-2"  >
<path style="stroke: none; stroke-width: 1; stroke-dasharray: none; stroke-linecap: butt; stroke-dashoffset: 0; stroke-linejoin: miter; stroke-miterlimit: 4; fill: rgb(0,113,188); fill-rule: nonzero; opacity: 1;"  transform=" translate(-147.32, -291.86)" d="M 246.75 368.51 C 228.36 369.51 237.55 365.51 234.24 344.34 C 233.24 328.34 223.39000000000001 286.17999999999995 199.91000000000003 300.09999999999997 C 183.64000000000001 315.79999999999995 182.65000000000003 335.4 178.60000000000002 359.03 C 177.60000000000002 362.15999999999997 179.50000000000003 368.41999999999996 174.74 368.47999999999996 C 162.96 368.47999999999996 153.14000000000001 368.47999999999996 142.93 368.47999999999996 C 140.07 368.47999999999996 139.85 366.25999999999993 139.79000000000002 365.29999999999995 C 138.11 324.21999999999997 91.61000000000001 325.61999999999995 88.27000000000001 364.9 C 88.06000000000002 366.69 87.46000000000001 368.51 84.27000000000001 368.48999999999995 C 74.36000000000001 368.4 64.42000000000002 368.42999999999995 56.860000000000014 368.48999999999995 C 47.01000000000001 366.68999999999994 42.69000000000001 310.84999999999997 43.30000000000001 305.98999999999995 C 39.10000000000001 212.63999999999996 177.15 184.98999999999995 227.08 252.23999999999995 C 249.22000000000003 282.65 254.31 324.8399999999999 250.08 365.23999999999995 C 250.09133804292267 366.1211789923096 249.7421436409243 366.96873074864146 249.11336550391022 367.58617954985345 C 248.4845873668961 368.2036283510655 247.63082722572605 368.53735628126844 246.75 368.51 Z M 242.5 365.19 C 243.98 365.19 245.44 365.25 246.87 365.29 C 252.34 312.16 242.58 251.52000000000004 192.11 227.94000000000003 C 149.52 209.54000000000002 87.25000000000001 217.71000000000004 60.110000000000014 257.58000000000004 C 40.110000000000014 289.14000000000004 44.76000000000001 326.50000000000006 56.240000000000016 365.23 C 64.24000000000001 365.29 74.61000000000001 365.23 84.89000000000001 365.23 C 89.04000000000002 320.33000000000004 141.21 320.69 142.96 365.23 C 153.13 365.23 162.96 365.23 174.62 365.23 C 181.13 269.34000000000003 238.73000000000002 270.66 238.2 365.23 C 239.68 365.23 241.1 365.19 242.5 365.19 Z M 197.5 262.55 C 190.25 262.55 190.19 251.32000000000002 197.5 251.27 C 204.81 251.22 204.78 262.55 197.48 262.55 Z M 197.5 254.49 C 194.41 254.55 194.41 259.23 197.5 259.33 C 200.59 259.42999999999995 200.7 254.46999999999997 197.5 254.48999999999998 Z" stroke-linecap="round" />
</g>
</svg>